<svg width="70" height="13" viewBox="0 0 70 13" fill="none" xmlns="http://www.w3.org/2000/svg">
<path d="M9.35938 10.1953L7.50781 3.32812L5.63281 10.1953C5.48698 10.7161 5.36979 11.0911 5.28125 11.3203C5.19792 11.5443 5.04948 11.7474 4.83594 11.9297C4.6224 12.1068 4.33854 12.1953 3.98438 12.1953C3.69792 12.1953 3.46094 12.1406 3.27344 12.0312C3.09115 11.9271 2.94271 11.7786 2.82812 11.5859C2.71354 11.388 2.61979 11.1562 2.54688 10.8906C2.47396 10.6198 2.40885 10.3698 2.35156 10.1406L0.445312 2.42969C0.330729 1.98177 0.273438 1.64062 0.273438 1.40625C0.273438 1.10938 0.377604 0.859375 0.585938 0.65625C0.794271 0.453125 1.05208 0.351562 1.35938 0.351562C1.78125 0.351562 2.0651 0.486979 2.21094 0.757812C2.35677 1.02865 2.48438 1.42188 2.59375 1.9375L4.09375 8.625L5.77344 2.36719C5.89844 1.88802 6.01042 1.52344 6.10938 1.27344C6.20833 1.02344 6.36979 0.807292 6.59375 0.625C6.81771 0.442708 7.1224 0.351562 7.50781 0.351562C7.89844 0.351562 8.20052 0.447917 8.41406 0.640625C8.63281 0.828125 8.78385 1.03385 8.86719 1.25781C8.95052 1.48177 9.0625 1.85156 9.20312 2.36719L10.8984 8.625L12.3984 1.9375C12.4714 1.58854 12.5391 1.3151 12.6016 1.11719C12.6693 0.919271 12.7812 0.742188 12.9375 0.585938C13.099 0.429688 13.3307 0.351562 13.6328 0.351562C13.9349 0.351562 14.1901 0.453125 14.3984 0.65625C14.612 0.854167 14.7188 1.10417 14.7188 1.40625C14.7188 1.61979 14.6615 1.96094 14.5469 2.42969L12.6406 10.1406C12.5104 10.6615 12.401 11.0443 12.3125 11.2891C12.2292 11.5286 12.0833 11.7396 11.875 11.9219C11.6719 12.1042 11.3828 12.1953 11.0078 12.1953C10.6536 12.1953 10.3698 12.1068 10.1562 11.9297C9.94271 11.7526 9.79427 11.5547 9.71094 11.3359C9.6276 11.112 9.51042 10.7318 9.35938 10.1953ZM15.5594 10.7812V1.75781C15.5594 1.28906 15.6661 0.9375 15.8797 0.703125C16.0932 0.46875 16.3693 0.351562 16.7078 0.351562C17.0568 0.351562 17.338 0.46875 17.5516 0.703125C17.7703 0.932292 17.8797 1.28385 17.8797 1.75781V10.7812C17.8797 11.2552 17.7703 11.6094 17.5516 11.8438C17.338 12.0781 17.0568 12.1953 16.7078 12.1953C16.3745 12.1953 16.0984 12.0781 15.8797 11.8438C15.6661 11.6042 15.5594 11.25 15.5594 10.7812ZM27.1187 2.46094H24.5875V10.7812C24.5875 11.2604 24.4807 11.6172 24.2672 11.8516C24.0536 12.0807 23.7776 12.1953 23.4391 12.1953C23.0953 12.1953 22.8141 12.0781 22.5953 11.8438C22.3818 11.6094 22.275 11.2552 22.275 10.7812V2.46094H19.7437C19.3479 2.46094 19.0536 2.375 18.8609 2.20312C18.6682 2.02604 18.5719 1.79427 18.5719 1.50781C18.5719 1.21094 18.6708 0.976562 18.8687 0.804688C19.0719 0.632812 19.3635 0.546875 19.7437 0.546875H27.1187C27.5198 0.546875 27.8167 0.635417 28.0094 0.8125C28.2073 0.989583 28.3062 1.22135 28.3062 1.50781C28.3062 1.79427 28.2073 2.02604 28.0094 2.20312C27.8115 2.375 27.5146 2.46094 27.1187 2.46094ZM31.2172 1.75781V5.03906H36.225V1.75781C36.225 1.28906 36.3292 0.9375 36.5375 0.703125C36.751 0.46875 37.0297 0.351562 37.3734 0.351562C37.7224 0.351562 38.0036 0.46875 38.2172 0.703125C38.4359 0.932292 38.5453 1.28385 38.5453 1.75781V10.7812C38.5453 11.2552 38.4359 11.6094 38.2172 11.8438C37.9984 12.0781 37.7172 12.1953 37.3734 12.1953C37.0245 12.1953 36.7458 12.0781 36.5375 11.8438C36.3292 11.6042 36.225 11.25 36.225 10.7812V6.92969H31.2172V10.7812C31.2172 11.2552 31.1078 11.6094 30.8891 11.8438C30.6703 12.0781 30.3891 12.1953 30.0453 12.1953C29.6964 12.1953 29.4177 12.0781 29.2094 11.8438C29.001 11.6042 28.8969 11.25 28.8969 10.7812V1.75781C28.8969 1.28906 28.9984 0.9375 29.2016 0.703125C29.4099 0.46875 29.6911 0.351562 30.0453 0.351562C30.3943 0.351562 30.6755 0.46875 30.8891 0.703125C31.1078 0.932292 31.2172 1.28385 31.2172 1.75781ZM45.7734 1.75781V5.77344L50.3281 1.02344C50.5469 0.794271 50.7318 0.625 50.8828 0.515625C51.0391 0.40625 51.2448 0.351562 51.5 0.351562C51.8333 0.351562 52.1016 0.450521 52.3047 0.648438C52.513 0.841146 52.6172 1.07812 52.6172 1.35938C52.6172 1.69792 52.4427 2.03385 52.0938 2.36719L49.2734 5.03906L52.5234 9.69531C52.7526 10.0182 52.9245 10.3021 53.0391 10.5469C53.1536 10.7865 53.2109 11.0208 53.2109 11.25C53.2109 11.5052 53.1094 11.7266 52.9062 11.9141C52.7083 12.1016 52.4375 12.1953 52.0938 12.1953C51.7708 12.1953 51.5078 12.1276 51.3047 11.9922C51.1016 11.8516 50.9297 11.6667 50.7891 11.4375C50.6484 11.2083 50.5234 11 50.4141 10.8125L47.6719 6.59375L45.7734 8.41406V10.7812C45.7734 11.2604 45.6641 11.6172 45.4453 11.8516C45.2266 12.0807 44.9453 12.1953 44.6016 12.1953C44.4036 12.1953 44.2135 12.1432 44.0312 12.0391C43.849 11.9349 43.7083 11.7943 43.6094 11.6172C43.5365 11.4714 43.4922 11.3021 43.4766 11.1094C43.4609 10.9167 43.4531 10.638 43.4531 10.2734V1.75781C43.4531 1.28906 43.5547 0.9375 43.7578 0.703125C43.9661 0.46875 44.2474 0.351562 44.6016 0.351562C44.9505 0.351562 45.2318 0.46875 45.4453 0.703125C45.6641 0.932292 45.7734 1.28385 45.7734 1.75781ZM58.3484 10.2734L56.5125 2.97656V10.8828C56.5125 11.3203 56.4135 11.6484 56.2156 11.8672C56.0229 12.0859 55.7651 12.1953 55.4422 12.1953C55.1297 12.1953 54.8745 12.0885 54.6766 11.875C54.4786 11.6562 54.3797 11.3255 54.3797 10.8828V1.82031C54.3797 1.32031 54.5099 0.984375 54.7703 0.8125C55.0307 0.635417 55.3823 0.546875 55.825 0.546875H56.5438C56.976 0.546875 57.2885 0.585938 57.4813 0.664062C57.6792 0.742188 57.825 0.882812 57.9188 1.08594C58.0125 1.28906 58.1193 1.61979 58.2391 2.07812L59.9031 8.35156L61.5672 2.07812C61.687 1.61979 61.7938 1.28906 61.8875 1.08594C61.9813 0.882812 62.1245 0.742188 62.3172 0.664062C62.5151 0.585938 62.8302 0.546875 63.2625 0.546875H63.9813C64.424 0.546875 64.7755 0.635417 65.0359 0.8125C65.2964 0.984375 65.4266 1.32031 65.4266 1.82031V10.8828C65.4266 11.3203 65.3276 11.6484 65.1297 11.8672C64.937 12.0859 64.6766 12.1953 64.3484 12.1953C64.0411 12.1953 63.7885 12.0859 63.5906 11.8672C63.3927 11.6484 63.2938 11.3203 63.2938 10.8828V2.97656L61.4578 10.2734C61.338 10.7474 61.2391 11.0964 61.1609 11.3203C61.088 11.5391 60.95 11.7396 60.7469 11.9219C60.5438 12.1042 60.2625 12.1953 59.9031 12.1953C59.6323 12.1953 59.4031 12.1354 59.2156 12.0156C59.0281 11.901 58.8823 11.7526 58.7781 11.5703C58.674 11.388 58.5906 11.1875 58.5281 10.9688C58.4708 10.7448 58.4109 10.513 58.3484 10.2734ZM67.1031 10.7812V1.75781C67.1031 1.28906 67.2099 0.9375 67.4234 0.703125C67.637 0.46875 67.913 0.351562 68.2516 0.351562C68.6005 0.351562 68.8818 0.46875 69.0953 0.703125C69.3141 0.932292 69.4234 1.28385 69.4234 1.75781V10.7812C69.4234 11.2552 69.3141 11.6094 69.0953 11.8438C68.8818 12.0781 68.6005 12.1953 68.2516 12.1953C67.9182 12.1953 67.6422 12.0781 67.4234 11.8438C67.2099 11.6042 67.1031 11.25 67.1031 10.7812Z" fill="#FDA3BA"/>
</svg>
