<svg width="24" height="58" viewBox="0 0 24 58" fill="none" xmlns="http://www.w3.org/2000/svg">
<path d="M17.7338 6.27531C17.3788 5.92036 16.8055 5.92036 16.4505 6.27531L12 10.7167L7.54949 6.26621C7.19454 5.91126 6.62116 5.91126 6.26621 6.26621C5.91126 6.62116 5.91126 7.19454 6.26621 7.54949L10.7167 12L6.26621 16.4505C5.91126 16.8055 5.91126 17.3788 6.26621 17.7338C6.62116 18.0887 7.19454 18.0887 7.54949 17.7338L12 13.2833L16.4505 17.7338C16.8055 18.0887 17.3788 18.0887 17.7338 17.7338C18.0887 17.3788 18.0887 16.8055 17.7338 16.4505L13.2833 12L17.7338 7.54949C18.0796 7.20364 18.0796 6.62116 17.7338 6.27531V6.27531Z" fill="#D2D2D1"/>
<path d="M17.7338 40.2753C17.3788 39.9204 16.8055 39.9204 16.4505 40.2753L12 44.7167L7.54949 40.2662C7.19454 39.9113 6.62116 39.9113 6.26621 40.2662C5.91126 40.6212 5.91126 41.1945 6.26621 41.5495L10.7167 46L6.26621 50.4505C5.91126 50.8055 5.91126 51.3788 6.26621 51.7338C6.62116 52.0887 7.19454 52.0887 7.54949 51.7338L12 47.2833L16.4505 51.7338C16.8055 52.0887 17.3788 52.0887 17.7338 51.7338C18.0887 51.3788 18.0887 50.8055 17.7338 50.4505L13.2833 46L17.7338 41.5495C18.0796 41.2036 18.0796 40.6212 17.7338 40.2753V40.2753Z" fill="#FF6859"/>
</svg>
