<svg width="28" height="218" viewBox="0 0 28 218" fill="none" xmlns="http://www.w3.org/2000/svg">
<path d="M18.5558 24.4212C19.1481 23.6528 19.1481 22.4116 18.5558 21.6432L12.6636 13.9988L18.5558 6.3543C19.1481 5.58592 19.1481 4.34468 18.5558 3.57629C17.9636 2.80791 17.0068 2.80791 16.4146 3.57629L9.44419 12.6196C8.85194 13.388 8.85194 14.6292 9.44419 15.3976L16.4146 24.4409C16.9916 25.1896 17.9636 25.1896 18.5558 24.4212Z" fill="#A4A4A4"/>
<path d="M9.44419 41.5788C8.85194 42.3472 8.85194 43.5884 9.44419 44.3568L15.3364 52.0012L9.44419 59.6457C8.85194 60.4141 8.85194 61.6553 9.44419 62.4237C10.0364 63.1921 10.9932 63.1921 11.5854 62.4237L18.5558 53.3804C19.1481 52.612 19.1481 51.3708 18.5558 50.6024L11.5854 41.5591C11.0084 40.8104 10.0364 40.8104 9.44419 41.5788Z" fill="#A4A4A4"/>
<path d="M18.5558 100.421C19.1481 99.6528 19.1481 98.4116 18.5558 97.6432L12.6636 89.9988L18.5558 82.3543C19.1481 81.5859 19.1481 80.3447 18.5558 79.5763C17.9636 78.8079 17.0068 78.8079 16.4146 79.5763L9.44419 88.6196C8.85194 89.388 8.85194 90.6292 9.44419 91.3976L16.4146 100.441C16.9916 101.19 17.9636 101.19 18.5558 100.421Z" fill="#64709C"/>
<path d="M9.44419 117.579C8.85194 118.347 8.85194 119.588 9.44419 120.357L15.3364 128.001L9.44419 135.646C8.85194 136.414 8.85194 137.655 9.44419 138.424C10.0364 139.192 10.9932 139.192 11.5854 138.424L18.5558 129.38C19.1481 128.612 19.1481 127.371 18.5558 126.602L11.5854 117.559C11.0084 116.81 10.0364 116.81 9.44419 117.579Z" fill="#64709C"/>
<path d="M18.5558 176.421C19.1481 175.653 19.1481 174.412 18.5558 173.643L12.6636 165.999L18.5558 158.354C19.1481 157.586 19.1481 156.345 18.5558 155.576C17.9636 154.808 17.0068 154.808 16.4146 155.576L9.44419 164.62C8.85194 165.388 8.85194 166.629 9.44419 167.398L16.4146 176.441C16.9916 177.19 17.9636 177.19 18.5558 176.421Z" fill="#E9E9E9"/>
<path d="M9.44419 193.579C8.85194 194.347 8.85194 195.588 9.44419 196.357L15.3364 204.001L9.44419 211.646C8.85194 212.414 8.85194 213.655 9.44419 214.424C10.0364 215.192 10.9932 215.192 11.5854 214.424L18.5558 205.38C19.1481 204.612 19.1481 203.371 18.5558 202.602L11.5854 193.559C11.0084 192.81 10.0364 192.81 9.44419 193.579Z" fill="#E9E9E9"/>
</svg>
