<svg width="20" height="20" viewBox="0 0 20 20" fill="none" xmlns="http://www.w3.org/2000/svg">
<path d="M12.64 11.0321L9.76 8.18764C9.68 8.10863 9.62347 8.02303 9.5904 7.93085C9.5568 7.83867 9.54 7.73991 9.54 7.63456C9.54 7.52921 9.5568 7.43044 9.5904 7.33826C9.62347 7.24608 9.68 7.16049 9.76 7.08147L12.64 4.23704C12.8 4.07901 12.9867 4 13.2 4C13.4133 4 13.6 4.07901 13.76 4.23704C13.92 4.39506 14 4.58258 14 4.7996C14 5.01715 13.92 5.20494 13.76 5.36296L12.26 6.84444H17.2C17.4267 6.84444 17.6165 6.92002 17.7696 7.0712C17.9232 7.2229 18 7.41069 18 7.63456C18 7.85843 17.9232 8.04595 17.7696 8.19712C17.6165 8.34883 17.4267 8.42468 17.2 8.42468H12.26L13.76 9.90616C13.92 10.0642 14 10.2485 14 10.4592C14 10.6699 13.92 10.8543 13.76 11.0123C13.6 11.1704 13.4168 11.2559 13.2104 11.2691C13.0035 11.2823 12.8133 11.2033 12.64 11.0321ZM6.24 15.7531C6.4 15.9111 6.58667 15.9933 6.8 15.9996C7.01333 16.0064 7.2 15.9308 7.36 15.7728L10.24 12.9284C10.32 12.8494 10.3768 12.7638 10.4104 12.6716C10.4435 12.5794 10.46 12.4806 10.46 12.3753C10.46 12.2699 10.4435 12.1712 10.4104 12.079C10.3768 11.9868 10.32 11.9012 10.24 11.8222L7.36 8.97776C7.2 8.81974 7.01333 8.74073 6.8 8.74073C6.58667 8.74073 6.4 8.81974 6.24 8.97776C6.08 9.13579 6 9.32331 6 9.54033C6 9.75788 6.08 9.94566 6.24 10.1037L7.74 11.5852H2.8C2.57333 11.5852 2.38347 11.6608 2.2304 11.8119C2.0768 11.9636 2 12.1514 2 12.3753C2 12.5992 2.0768 12.7867 2.2304 12.9379C2.38347 13.0896 2.57333 13.1654 2.8 13.1654H7.74L6.24 14.6469C6.08 14.8049 6 14.9893 6 15.2C6 15.4107 6.08 15.595 6.24 15.7531Z" fill="#2F7AD3"/>
</svg>
